<?xml version="1.0" encoding="utf-8"?>
<!-- Generator: Adobe Illustrator 22.0.0, SVG Export Plug-In . SVG Version: 6.00 Build 0)  -->
<svg version="1.1" id="Layer_1" xmlns="http://www.w3.org/2000/svg" xmlns:xlink="http://www.w3.org/1999/xlink" x="0px" y="0px"
	 viewBox="0 0 1000 1000" style="enable-background:new 0 0 1000 1000;" xml:space="preserve">
<style type="text/css">
	.st0{fill:#FFC268;}
</style>
<g>
	<g>
		<path class="st0" d="M503.6,435.2v17.9c-1.2-0.1-2.4-0.1-3.6-0.1c-1.4,0-2.8,0.1-4.2,0.2v-18c0-2.2,1.8-3.9,3.9-3.9h0
			C501.9,431.2,503.6,433,503.6,435.2z"/>
		<path class="st0" d="M503.6,546.9v17.9c0,2.2-1.8,3.9-3.9,3.9h0c-2.2,0-3.9-1.8-3.9-3.9v-18c1.4,0.1,2.8,0.2,4.2,0.2
			C501.2,547,502.4,547,503.6,546.9z"/>
		<path class="st0" d="M548.4,456.7l-12.7,12.7c-1.7-2-3.6-3.8-5.6-5.5l12.7-12.7c1.5-1.5,4-1.5,5.5,0v0
			C549.9,452.7,549.9,455.2,548.4,456.7z"/>
		<path class="st0" d="M469.4,535.7l-12.7,12.7c-1.5,1.5-4,1.5-5.5,0l0,0c-1.5-1.5-1.5-4,0-5.5l12.7-12.7
			C465.5,532.2,467.4,534,469.4,535.7z"/>
		<path class="st0" d="M568.8,499.7L568.8,499.7c0,2.2-1.8,3.9-3.9,3.9h-17.9c0.1-1.2,0.1-2.4,0.1-3.6c0-1.4-0.1-2.8-0.2-4.2h18
			C567,495.8,568.8,497.5,568.8,499.7z"/>
		<path class="st0" d="M453,500c0,1.2,0,2.4,0.1,3.6h-17.9c-2.2,0-3.9-1.8-3.9-3.9v0c0-2.2,1.8-3.9,3.9-3.9h18
			C453,497.2,453,498.6,453,500z"/>
		<path class="st0" d="M548.8,548.4L548.8,548.4c-1.5,1.5-4,1.5-5.6,0l-12.7-12.7c2-1.7,3.8-3.6,5.5-5.6l12.7,12.7
			C550.4,544.4,550.4,546.9,548.8,548.4z"/>
		<path class="st0" d="M469.8,463.9c-2,1.7-3.9,3.5-5.6,5.5l-12.7-12.7c-1.5-1.5-1.5-4,0-5.5l0,0c1.5-1.5,4-1.5,5.5,0L469.8,463.9z"
			/>
	</g>
	<g>
		<rect x="467.4" y="484.1" class="st0" width="65.2" height="7.2"/>
		<rect x="474.7" y="498.5" class="st0" width="50.7" height="7.3"/>
		<rect x="481.9" y="513" class="st0" width="36.2" height="7.2"/>
	</g>
</g>
</svg>
