<?xml version="1.0" encoding="utf-8"?>
<!-- Generator: Adobe Illustrator 22.0.0, SVG Export Plug-In . SVG Version: 6.00 Build 0)  -->
<svg version="1.1" id="Layer_1" xmlns="http://www.w3.org/2000/svg" xmlns:xlink="http://www.w3.org/1999/xlink" x="0px" y="0px"
	 viewBox="0 0 1000 1000" style="enable-background:new 0 0 1000 1000;" xml:space="preserve">
<g>
	<g>
		<path d="M504,428v19.9c-1.3-0.1-2.7-0.2-4-0.2c-1.6,0-3.2,0.1-4.7,0.2v-20c0-2.4,1.9-4.3,4.3-4.3h0C502.1,423.7,504,425.6,504,428
			z"/>
		<path d="M504,552.1V572c0,2.4-1.9,4.3-4.3,4.3h0c-2.4,0-4.3-1.9-4.3-4.3v-20c1.5,0.1,3.1,0.2,4.7,0.2
			C501.3,552.2,502.7,552.2,504,552.1z"/>
		<path d="M553.7,451.9L539.7,466c-1.9-2.2-4-4.3-6.2-6.1l14.1-14.1c1.7-1.7,4.5-1.7,6.1,0l0,0C555.4,447.5,555.4,450.2,553.7,451.9
			z"/>
		<path d="M466,539.7l-14.1,14.1c-1.7,1.7-4.5,1.7-6.1,0v0c-1.7-1.7-1.7-4.4,0-6.1l14.1-14.1C461.8,535.7,463.8,537.8,466,539.7z"/>
		<path d="M576.3,499.7L576.3,499.7c0,2.4-1.9,4.4-4.3,4.4h-19.9c0.1-1.3,0.2-2.7,0.2-4c0-1.6-0.1-3.2-0.2-4.7h20
			C574.4,495.3,576.3,497.2,576.3,499.7z"/>
		<path d="M447.8,500c0,1.3,0.1,2.7,0.2,4H428c-2.4,0-4.3-1.9-4.3-4.3v0c0-2.4,1.9-4.3,4.3-4.3h20
			C447.8,496.8,447.8,498.4,447.8,500z"/>
		<path d="M554.2,553.7L554.2,553.7c-1.7,1.7-4.5,1.7-6.2,0L534,539.7c2.2-1.9,4.3-4,6.1-6.2l14.1,14.1
			C555.9,549.3,555.9,552,554.2,553.7z"/>
		<path d="M466.5,459.9c-2.2,1.9-4.3,3.9-6.2,6.1l-14.1-14.1c-1.7-1.7-1.7-4.5,0-6.2l0,0c1.7-1.7,4.4-1.7,6.1,0L466.5,459.9z"/>
	</g>
	<g>
		<rect x="463.8" y="482.3" width="72.3" height="8"/>
		<rect x="471.9" y="498.4" width="56.3" height="8.1"/>
		<rect x="479.9" y="514.5" width="40.2" height="8"/>
	</g>
</g>
</svg>
