<?xml version="1.0" encoding="utf-8"?>
<!-- Generator: Adobe Illustrator 22.0.0, SVG Export Plug-In . SVG Version: 6.00 Build 0)  -->
<svg version="1.1" id="Layer_1" xmlns="http://www.w3.org/2000/svg" xmlns:xlink="http://www.w3.org/1999/xlink" x="0px" y="0px"
	 viewBox="0 0 1000 1000" style="enable-background:new 0 0 1000 1000;" xml:space="preserve">
<style type="text/css">
	.st0{fill:#FFC268;}
	.st1{font-family:'Mont-SemiBold';}
	.st2{font-size:32.0031px;}
	.st3{font-size:47.2812px;}
	.st4{letter-spacing:9;}
</style>
<g>
	<g>
		<g>
			<path class="st0" d="M377.4,435.2v17.9c-1.2-0.1-2.4-0.1-3.6-0.1c-1.4,0-2.8,0.1-4.2,0.2v-18c0-2.2,1.8-3.9,3.9-3.9h0
				C375.6,431.2,377.4,433,377.4,435.2z"/>
			<path class="st0" d="M377.4,546.9v17.9c0,2.2-1.8,3.9-3.9,3.9h0c-2.2,0-3.9-1.8-3.9-3.9v-18c1.4,0.1,2.8,0.2,4.2,0.2
				C375,547,376.2,547,377.4,546.9z"/>
			<path class="st0" d="M422.2,456.7l-12.7,12.7c-1.7-2-3.6-3.8-5.6-5.5l12.7-12.7c1.5-1.5,4-1.5,5.5,0v0
				C423.7,452.7,423.7,455.2,422.2,456.7z"/>
			<path class="st0" d="M343.1,535.7l-12.7,12.7c-1.5,1.5-4,1.5-5.5,0h0c-1.5-1.5-1.5-4,0-5.5l12.7-12.7
				C339.3,532.2,341.2,534,343.1,535.7z"/>
			<path class="st0" d="M442.5,499.7L442.5,499.7c0,2.2-1.8,3.9-3.9,3.9h-17.9c0.1-1.2,0.1-2.4,0.1-3.6c0-1.4-0.1-2.8-0.2-4.2h18
				C440.8,495.8,442.5,497.5,442.5,499.7z"/>
			<path class="st0" d="M326.7,500c0,1.2,0,2.4,0.1,3.6h-17.9c-2.2,0-3.9-1.8-3.9-3.9v0c0-2.2,1.8-3.9,3.9-3.9h18
				C326.8,497.2,326.7,498.6,326.7,500z"/>
			<path class="st0" d="M422.6,548.4L422.6,548.4c-1.5,1.5-4,1.5-5.6,0l-12.7-12.7c2-1.7,3.8-3.6,5.5-5.6l12.7,12.7
				C424.1,544.4,424.1,546.9,422.6,548.4z"/>
			<path class="st0" d="M343.6,463.9c-2,1.7-3.9,3.5-5.6,5.5l-12.7-12.7c-1.5-1.5-1.5-4,0-5.5l0,0c1.5-1.5,4-1.5,5.5,0L343.6,463.9z
				"/>
		</g>
		<g>
			<rect x="341.2" y="484.1" class="st0" width="65.2" height="7.2"/>
			<rect x="348.4" y="498.5" class="st0" width="50.7" height="7.3"/>
			<rect x="355.7" y="513" class="st0" width="36.2" height="7.2"/>
		</g>
	</g>
	<g>
		<text transform="matrix(1 0 0 1 463.918 487.582)" class="st1 st2">renewabletek</text>
		<text transform="matrix(1 0 0 1 466.4673 532.959)" class="st1 st3 st4">AFRICA</text>
	</g>
</g>
</svg>
