<svg id="Capa_1" enable-background="new 0 0 512.166 512.166" height="512" viewBox="0 0 512.166 512.166" width="512" xmlns="http://www.w3.org/2000/svg"><g><g><g><path d="m283.967 24.833 52.692 106.766c4.529 9.177 13.285 15.539 23.413 17.01l117.824 17.121c25.505 3.706 35.689 35.049 17.233 53.039l-85.258 83.106c-7.329 7.144-10.673 17.436-8.943 27.523l20.127 117.348c4.357 25.402-22.305 44.773-45.117 32.78l-105.385-55.404c-9.059-4.762-19.881-4.762-28.94 0l-105.385 55.404c-22.812 11.993-49.474-7.378-45.117-32.78l20.127-117.348c1.73-10.087-1.614-20.38-8.943-27.523l-85.258-83.106c-18.455-17.99-8.271-49.333 17.233-53.039l117.824-17.121c10.128-1.472 18.883-7.833 23.413-17.01l52.692-106.766c11.406-23.111 44.362-23.111 55.768 0z" fill="#fee45a"/></g><g><path d="m409.874 301.879c-7.336 7.136-10.679 17.436-8.943 27.516l20.121 117.352c4.361 25.401-22.307 44.773-45.112 32.776l-2.525-1.327c15.081-3.713 26.758-18.484 23.734-36.11l-20.45-119.238c-1.756-10.25 1.637-20.71 9.092-27.966l86.632-84.456c13.693-13.344 11.867-33.924-.2-45.522l5.669.828c25.51 3.703 35.691 35.042 17.237 53.037z" fill="#fed402"/></g></g><g><path d="m364.466 305.966c-1.071-28.575-6.843-54.469-14.781-81.665-.014 0-167.744 0-167.744 0v129.365 82.372h144.497s0-40.38 0-41.061c.003-8.451 5.09-20.031 10.822-25.714 20.274-20.098 28.26-35.176 27.206-63.297z" fill="#fed2a4"/></g><g><path d="m337.263 369.266c-5.73 5.68-10.82 17.26-10.82 25.71v41.06h-20s0-49.19 0-49.87c0-8.45 5.09-20.03 10.82-25.71 20.27-20.1 28.26-26.37 27.2-54.49-1.07-28.58-6.84-54.47-14.78-81.66h20c7.94 27.19 13.71 53.08 14.78 81.66 1.06 28.12-6.93 43.2-27.2 63.3z" fill="#ffbd86"/></g><g><g><path d="m352.95 450.724v39.258c0 8.11-6.575 14.685-14.685 14.685h-164.367c-8.11 0-14.685-6.575-14.685-14.685v-39.258c0-8.11 6.575-14.685 14.685-14.685h164.367c8.11 0 14.685 6.575 14.685 14.685z" fill="#60b7ff"/></g><g><path d="m352.953 450.723v39.257c0 8.117-6.579 14.686-14.686 14.686h-19.807c8.107 0 14.686-6.569 14.686-14.686v-39.257c0-8.107-6.579-14.686-14.686-14.686h19.807c8.107-.001 14.686 6.578 14.686 14.686z" fill="#26a6fe"/></g></g><g><path d="m221.643 196.771v52.837c0 12.621-10.231 22.852-22.852 22.852-12.621 0-22.852-10.231-22.852-22.852v-52.837c0-12.621 10.231-22.852 22.852-22.852 12.621.001 22.852 10.232 22.852 22.852z" fill="#f6a96c"/></g><g><path d="m313.423 196.771v52.837c0 12.621-10.231 22.852-22.852 22.852-12.621 0-22.852-10.231-22.852-22.852v-52.837c0-12.621 10.231-22.852 22.852-22.852 12.621.001 22.852 10.232 22.852 22.852z" fill="#f6a96c"/></g><g><path d="m353.856 218.341v46.831c0 11.186-9.068 20.254-20.254 20.254-11.186 0-20.254-9.068-20.254-20.254v-46.831c0-11.186 9.068-20.254 20.254-20.254 11.186 0 20.254 9.068 20.254 20.254z" fill="#f6a96c"/></g><g><path d="m268 186.038v52.837c0 12.621-10.231 22.852-22.852 22.852-12.621 0-22.852-10.231-22.852-22.852v-52.837c0-12.621 10.231-22.852 22.852-22.852 12.621.001 22.852 10.232 22.852 22.852z" fill="#f6a96c"/></g><g><path d="m221.643 196.776v52.83c0 12.62-10.23 22.85-22.85 22.85-3.53 0-6.88-.8-9.87-2.23 7.67-3.69 12.97-11.54 12.97-20.62v-52.83c0-6.31-2.56-12.03-6.69-16.17-1.82-1.81-3.94-3.33-6.28-4.46 2.99-1.43 6.34-2.23 9.87-2.23 6.31 0 12.02 2.56 16.16 6.69 4.13 4.14 6.69 9.86 6.69 16.17z" fill="#ea9b58"/></g><g><path d="m313.423 196.776v52.83c0 12.62-10.23 22.85-22.85 22.85-3.53 0-6.88-.8-9.87-2.23 7.67-3.69 12.97-11.54 12.97-20.62v-52.83c0-6.31-2.56-12.03-6.69-16.17-1.82-1.81-3.94-3.33-6.28-4.46 2.99-1.43 6.34-2.23 9.87-2.23 6.31 0 12.02 2.56 16.16 6.69 4.13 4.14 6.69 9.86 6.69 16.17z" fill="#ea9b58"/></g><g><path d="m353.853 218.336v46.84c0 11.18-9.07 20.25-20.25 20.25-3.59 0-6.96-.93-9.88-2.57 6.19-3.46 10.38-10.08 10.38-17.68v-46.84c0-5.59-2.26-10.65-5.93-14.32-1.32-1.32-2.81-2.45-4.45-3.36 2.92-1.64 6.29-2.57 9.88-2.57 5.59 0 10.65 2.27 14.32 5.93 3.66 3.67 5.93 8.73 5.93 14.32z" fill="#ea9b58"/></g><g><path d="m268.003 186.036v52.84c0 12.62-10.23 22.85-22.85 22.85h-.01c-3.53 0-6.88-.8-9.87-2.23 7.68-3.69 12.98-11.53 12.98-20.62v-52.84c0-6.31-2.56-12.02-6.69-16.16-1.82-1.82-3.95-3.33-6.29-4.46 2.99-1.43 6.34-2.23 9.87-2.23h.01c12.62 0 22.85 10.23 22.85 22.85z" fill="#ea9b58"/></g><g><path d="m231.167 334.57c2.404-20.081-10.008-37.098-16.527-42.253-1.272-1.006-6.061-4.596-7.273-6.169-1.402-1.819-.139-4.456 2.157-4.508 1.301-.03 2.592-.118 3.859-.017 8.885.708 35.585 5.794 52.431-6.48 8.892-6.479 11.245-14.44 10.357-23.074-.336-3.267-2.673-5.972-5.958-5.972h-84.02c-6.235 0-12.226 2.225-16.925 6.215-9.235 7.847-16.559 23.29-19.096 34.848-1.631 7.429-2.59 15.154-2.562 22.768.109 29.045 15.036 50.13 34.332 70.461l4.142 4.445h45.333z" fill="#fed2a4"/></g><g><path d="m199.529 283.156h7.564c-.47.9-.45 2.05.27 2.99 1.22 1.57 6 5.16 7.28 6.17 6.52 5.16 18.93 22.17 16.52 42.25h-4.928c-9.187 0-17.009-6.539-18.81-15.548-2.213-11.07-6.288-19.879-12.131-24.948-1.332-1.156-2.044-2.871-2.044-4.634 0-3.468 2.811-6.28 6.279-6.28z" fill="#ffbd86"/></g><path d="m500.364 224.14c10.597-10.329 14.339-25.489 9.766-39.564-4.573-14.074-16.512-24.139-31.156-26.267l-117.824-17.121c-7.687-1.117-14.328-5.942-17.766-12.907l-19.159-38.82c-1.833-3.715-6.329-5.24-10.045-3.406-3.714 1.833-5.239 6.33-3.406 10.045l19.159 38.82c5.623 11.393 16.487 19.285 29.06 21.112l117.824 17.121c9.089 1.321 16.209 7.324 19.047 16.059 2.838 8.734.606 17.777-5.97 24.188l-85.258 83.105c-9.098 8.869-13.248 21.64-11.1 34.162l20.126 117.348c1.553 9.052-1.957 17.679-9.386 23.077-7.431 5.398-16.72 6.071-24.849 1.796l-18.978-9.977v-12.186c0-12.232-9.952-22.185-22.185-22.185h-4.327v-33.56c.002-6.21 4.102-15.929 8.602-20.39 20.012-19.839 30.627-36.696 29.42-68.905-.94-25.07-5.453-47.635-10.604-67.366v-19.978c0-15.304-12.451-27.754-27.754-27.754-4.627 0-8.99 1.144-12.83 3.155-1.525-15.319-14.486-27.322-30.2-27.322-6.845 0-13.167 2.28-18.25 6.118-4.978-9.978-15.285-16.851-27.173-16.851-12.097 0-22.561 7.116-27.434 17.38-5.193-4.154-11.771-6.647-18.923-6.647-16.736 0-30.352 13.615-30.352 30.352v46.898c-1.406.873-2.756 1.846-4.029 2.927-10.993 9.341-18.884 26.741-21.565 38.955-1.845 8.405-2.765 16.616-2.736 24.404.119 31.643 16.459 53.817 32.427 71.336 1.228 1.347 1.904 3.078 1.904 4.874v42.373h-.543c-12.232 0-22.185 9.952-22.185 22.185v12.187l-18.975 9.976c-8.129 4.275-17.418 3.603-24.849-1.796-7.43-5.398-10.939-14.025-9.386-23.077l20.126-117.348c2.148-12.522-2.002-25.293-11.1-34.162l-85.257-83.104c-6.577-6.411-8.809-15.454-5.971-24.188s9.958-14.737 19.047-16.059l117.824-17.121c12.573-1.827 23.437-9.72 29.06-21.112l52.692-106.767c4.066-8.237 11.976-13.153 21.16-13.153s17.094 4.916 21.157 13.149l18.2 36.917c1.832 3.715 6.328 5.245 10.043 3.41 3.715-1.831 5.242-6.328 3.411-10.043l-18.201-36.92c-6.55-13.27-19.811-21.513-34.61-21.513s-28.06 8.243-34.609 21.514l-52.693 106.766c-3.438 6.965-10.079 11.79-17.766 12.907l-117.823 17.122c-14.645 2.128-26.583 12.192-31.156 26.267s-.831 29.235 9.767 39.565l85.258 83.105c5.562 5.421 8.099 13.229 6.786 20.885l-20.128 117.348c-2.502 14.585 3.381 29.049 15.354 37.748 11.972 8.698 27.547 9.824 40.646 2.938l11.995-6.306v10.124c0 12.232 9.952 22.185 22.185 22.185h31.685c4.142 0 7.5-3.357 7.5-7.5s-3.358-7.5-7.5-7.5h-31.685c-3.961 0-7.185-3.223-7.185-7.185v-39.258c0-3.962 3.223-7.185 7.185-7.185h164.367c3.961 0 7.185 3.223 7.185 7.185v39.258c0 3.962-3.223 7.185-7.185 7.185h-98.016c-4.142 0-7.5 3.357-7.5 7.5s3.358 7.5 7.5 7.5h98.016c12.232 0 22.185-9.952 22.185-22.185v-10.125l11.998 6.308c5.698 2.995 11.862 4.475 17.997 4.475 7.968-.001 15.885-2.498 22.649-7.412 11.973-8.699 17.856-23.163 15.354-37.748l-20.129-117.35c-1.313-7.656 1.224-15.464 6.786-20.885zm-179.441-7.165c.684-6.392 6.107-11.388 12.678-11.388 7.033 0 12.754 5.722 12.754 12.754v46.831c0 7.032-5.722 12.754-12.754 12.754s-12.754-5.722-12.754-12.754zm-45.423-23.083c1.353-7.092 7.592-12.472 15.071-12.472 8.465 0 15.352 6.887 15.352 15.352l-.076 54.331c-.754 7.766-7.315 13.858-15.276 13.858-2.77 0-5.358-.756-7.601-2.049.882-3.729 1.1-7.744.613-12.047-.568-5.027-3.769-9.153-8.118-11.083.009-.304.035-45.89.035-45.89zm-45.704-7.854c0-8.465 6.887-15.352 15.352-15.352s15.352 6.887 15.352 15.352l-.28 52.559h-30.423v-52.559zm-46.357 10.733c0-8.465 6.887-15.352 15.352-15.352s15.352 6.887 15.352 15.352v41.825h-27.951c-.922 0-1.839.042-2.752.117v-41.942zm135.499 198.208v33.561h-129.497s0-41.569 0-42.373c0-5.543-2.066-10.863-5.818-14.979-14.044-15.406-28.414-34.736-28.513-61.287-.025-6.689.778-13.8 2.387-21.133 2.172-9.898 8.738-24.036 16.624-30.737 3.368-2.858 7.655-4.433 12.072-4.433h82.585c.502 6.703-1.744 11.377-7.381 15.484-12.349 8.997-32.277 6.738-42.983 5.526-1.708-.194-3.184-.361-4.433-.46-5.263-.426-11.198.628-13.694 5.857-1.68 3.52-1.245 7.626 1.138 10.72 2.803 3.64 6.817 5.67 10.044 8.795 2.389 2.314 4.372 5.095 6.073 7.94 4.677 7.821 7.272 17.086 6.178 26.217-.493 4.112 2.442 7.846 6.555 8.339 4.108.493 7.847-2.442 8.338-6.556 2.304-19.242-6.99-36.334-15.296-45.262 12.934 1.153 32.583 1.446 46.913-8.995 2.146-1.563 4.024-3.251 5.665-5.048 4.353 2.417 9.355 3.804 14.677 3.804 6.286 0 12.132-1.921 16.982-5.207 3.91 10.596 14.11 18.173 26.048 18.173 8.587 0 16.275-3.921 21.37-10.065.983 7.538 1.697 15.329 2 23.388.912 24.32-4.927 37.8-24.991 57.69-7.311 7.247-13.04 20.879-13.043 31.041z"/></g></svg>