<svg height="512" viewBox="0 0 74 74" width="512" xmlns="http://www.w3.org/2000/svg"><g id="color_line" data-name="color line"><path d="m24.2 70.753h23.551a13.511 13.511 0 0 0 4.07-.628l1.9-.6v-23.876h-4.206a23.374 23.374 0 0 0 -6.172-5.321c-4.46-2.486-9.229-4.9-9.723-10.922a3.469 3.469 0 0 0 -2.39-3.086l-.252-.077a3.405 3.405 0 0 0 -4.392 2.718c-.7 4.392-.648 11.357 5.708 14.153h-4.768z" fill="#fcd462"/><path d="m53.72 66.55v2.97l-1.9.61a13.714 13.714 0 0 1 -4.07.62h-23.55l.37-3.05h21.22a13.407 13.407 0 0 0 4.07-.63z" fill="#f7be56"/><rect fill="#9297ab" height="28.641" rx="2.025" width="11.844" x="53.727" y="43.127"/><path d="m65.57 66.62v3.12a2.029 2.029 0 0 1 -2.02 2.03h-7.8a2.023 2.023 0 0 1 -2.02-2.03v-3.12a2.023 2.023 0 0 0 2.02 2.03h7.8a2.029 2.029 0 0 0 2.02-2.03z" fill="#84879c"/><path d="m12.437 7.22 2.608 5.283 5.831.848-4.219 4.113.996 5.807-5.216-2.742-5.215 2.742.996-5.807-4.22-4.113 5.831-.848z" fill="#e1e6e9"/><path d="m55.936 7.22-2.608 5.283-5.831.848 4.22 4.113-.996 5.807 5.215-2.742 5.216 2.742-.996-5.807 4.219-4.113-5.831-.848z" fill="#e1e6e9"/><path d="m34.187 3.151 2.607 5.284 5.832.847-4.22 4.113.996 5.808-5.215-2.742-5.216 2.742.996-5.808-4.219-4.113 5.831-.847z" fill="#e1e6e9"/><path d="m39.4 19.208-2.216-1.172-.511-3.648 1.737-1.683z" fill="#d5d6db"/><path d="m15.046 12.507 5.827.841-2.034 1.982-5.455-.788-2.28-4.624 1.332-2.695z" fill="#d5d6db"/><path d="m47.496 13.348 6.47-.938-.959 1.928-3.902.576z" fill="#d5d6db"/><path d="m60.098 16.763 1.056 6.504-2.216-1.161-.566-3.66z" fill="#d5d6db"/><path d="m64.371 13.348-2.034 1.982-5.455-.788-2.28-4.624 1.332-2.695 2.61 5.284z" fill="#d5d6db"/><path d="m25.753 9.279 6.428-.91-.948 1.928-3.882.548z" fill="#d5d6db"/><path d="m4.491 13.585 5.786-.816-.948 1.929-3.24.453z" fill="#d5d6db"/><path d="m42.628 9.279-2.035 1.981-5.465-.788-2.28-4.613 1.342-2.706 2.6 5.284z" fill="#d5d6db"/><path d="m47.751 71.253h-23.551a.5.5 0 0 1 -.5-.56l3.328-27.639a.5.5 0 0 1 .5-.44h2.829c-5.011-3.409-4.865-9.922-4.261-13.731a3.9 3.9 0 0 1 5.036-3.117l.248.076a3.975 3.975 0 0 1 2.742 3.524c.452 5.518 4.771 7.917 8.948 10.237l.519.289a23.184 23.184 0 0 1 6.16 5.257h3.977a.5.5 0 0 1 .5.5v23.876a.5.5 0 0 1 -.349.477l-1.9.6a14 14 0 0 1 -4.226.651zm-22.989-1h22.989a12.994 12.994 0 0 0 3.919-.6l1.553-.49v-23.014h-3.708a.5.5 0 0 1 -.382-.178 22.4 22.4 0 0 0 -6.033-5.206l-.517-.288c-4.407-2.448-8.964-4.979-9.46-11.03a2.978 2.978 0 0 0 -2.04-2.65l-.249-.076a2.9 2.9 0 0 0 -3.752 2.319c-.76 4.791-.437 11.042 5.415 13.617a.5.5 0 0 1 -.2.958h-4.328z" fill="#323c6b"/><path d="m27.009 43.127h-11.109a3.453 3.453 0 0 0 0 6.907h11.11a3.453 3.453 0 0 0 0-6.907z" fill="#f7be56"/><path d="m27.009 50.534h-11.109a3.953 3.953 0 0 1 0-7.907h11.11a3.953 3.953 0 0 1 0 7.907zm-11.109-6.907a2.953 2.953 0 0 0 0 5.907h11.11a2.953 2.953 0 0 0 0-5.907z" fill="#323c6b"/><path d="m28.22 50.034h-10.748a3.453 3.453 0 0 0 0 6.907h10.748a3.453 3.453 0 0 0 0-6.907z" fill="#f7be56"/><path d="m28.22 57.441h-10.748a3.953 3.953 0 1 1 0-7.907h10.748a3.953 3.953 0 1 1 0 7.907zm-10.748-6.907a2.953 2.953 0 1 0 0 5.907h10.748a2.953 2.953 0 1 0 0-5.907z" fill="#323c6b"/><path d="m28.925 56.941h-9.988a3.453 3.453 0 0 0 0 6.907h9.989a3.453 3.453 0 1 0 0-6.907z" fill="#f7be56"/><path d="m28.925 64.348h-9.988a3.953 3.953 0 0 1 0-7.907h9.989a3.953 3.953 0 1 1 0 7.907zm-9.989-6.907a2.953 2.953 0 0 0 0 5.907h9.989a2.953 2.953 0 1 0 0-5.907z" fill="#323c6b"/><path d="m29.414 63.848h-8.563a3.453 3.453 0 0 0 0 6.907h8.562a3.453 3.453 0 0 0 0-6.907z" fill="#f7be56"/><g fill="#323c6b"><path d="m29.414 71.255h-8.563a3.954 3.954 0 0 1 0-7.907h8.563a3.954 3.954 0 1 1 0 7.907zm-8.562-6.907a2.954 2.954 0 0 0 0 5.907h8.563a2.954 2.954 0 1 0 0-5.907z"/><path d="m63.546 72.268h-7.795a2.528 2.528 0 0 1 -2.525-2.525v-24.591a2.528 2.528 0 0 1 2.525-2.525h7.794a2.528 2.528 0 0 1 2.525 2.525v24.591a2.528 2.528 0 0 1 -2.524 2.525zm-7.795-28.641a1.527 1.527 0 0 0 -1.525 1.525v24.591a1.527 1.527 0 0 0 1.525 1.525h7.794a1.527 1.527 0 0 0 1.525-1.525v-24.591a1.527 1.527 0 0 0 -1.525-1.525z"/><path d="m17.653 23.771a.5.5 0 0 1 -.233-.058l-4.983-2.62-4.982 2.62a.5.5 0 0 1 -.726-.527l.952-5.549-4.032-3.93a.5.5 0 0 1 .277-.853l5.571-.81 2.492-5.044a.52.52 0 0 1 .9 0l2.492 5.048 5.571.81a.5.5 0 0 1 .277.853l-4.031 3.93.952 5.549a.5.5 0 0 1 -.493.584zm-5.216-3.742a.5.5 0 0 1 .233.058l4.319 2.271-.825-4.809a.5.5 0 0 1 .144-.442l3.492-3.407-4.827-.7a.5.5 0 0 1 -.376-.273l-2.16-4.377-2.159 4.375a.5.5 0 0 1 -.378.275l-4.829.7 3.494 3.406a.5.5 0 0 1 .144.442l-.825 4.809 4.316-2.27a.5.5 0 0 1 .237-.058z"/><path d="m61.152 23.771a.5.5 0 0 1 -.233-.058l-4.983-2.62-4.982 2.62a.5.5 0 0 1 -.726-.527l.952-5.549-4.032-3.93a.5.5 0 0 1 .277-.853l5.575-.808 2.488-5.046a.52.52 0 0 1 .9 0l2.492 5.048 5.571.81a.5.5 0 0 1 .277.853l-4.031 3.93.952 5.549a.5.5 0 0 1 -.493.584zm-5.216-3.742a.5.5 0 0 1 .233.058l4.319 2.271-.825-4.809a.5.5 0 0 1 .144-.442l3.493-3.407-4.828-.7a.5.5 0 0 1 -.376-.273l-2.16-4.377-2.16 4.375a.5.5 0 0 1 -.376.275l-4.828.7 3.494 3.406a.5.5 0 0 1 .144.442l-.825 4.809 4.315-2.27a.5.5 0 0 1 .236-.058z"/><path d="m39.4 19.7a.5.5 0 0 1 -.233-.058l-4.983-2.62-4.984 2.624a.5.5 0 0 1 -.726-.527l.952-5.548-4.026-3.93a.5.5 0 0 1 .277-.853l5.571-.81 2.49-5.048a.52.52 0 0 1 .9 0l2.492 5.048 5.571.81a.5.5 0 0 1 .277.853l-4.035 3.929.952 5.549a.5.5 0 0 1 -.493.584zm-5.216-3.742a.5.5 0 0 1 .233.058l4.319 2.271-.825-4.809a.5.5 0 0 1 .144-.442l3.494-3.406-4.829-.7a.5.5 0 0 1 -.376-.273l-2.16-4.375-2.16 4.375a.5.5 0 0 1 -.376.273l-4.828.7 3.494 3.406a.5.5 0 0 1 .144.442l-.825 4.809 4.318-2.271a.5.5 0 0 1 .236-.055z"/><path d="m23.472 35.5a.5.5 0 0 1 -.5-.438l-.031-.219c-.019-.125-.038-.25-.05-.38a.5.5 0 1 1 1-.093c.01.111.026.218.042.325l.034.243a.5.5 0 0 1 -.434.558.544.544 0 0 1 -.061.004z"/><path d="m23.308 32.958a.5.5 0 0 1 -.5-.5 26.054 26.054 0 0 1 .323-4.045 6.882 6.882 0 0 1 5.122-5.6.5.5 0 1 1 .244.97 5.884 5.884 0 0 0 -4.379 4.783 25.139 25.139 0 0 0 -.31 3.89.5.5 0 0 1 -.5.502z"/><path d="m68.571 51.833a.5.5 0 0 1 -.5-.5v-1a.5.5 0 0 1 1 0v1a.5.5 0 0 1 -.5.5z"/><path d="m68.571 62.083a.5.5 0 0 1 -.5-.5v-7.75a.5.5 0 0 1 1 0v7.75a.5.5 0 0 1 -.5.5z"/></g><path d="m49.552 60.824-.01-7.7a.767.767 0 1 1 1.533 0l.01 7.711a.738.738 0 0 1 -.189.5.769.769 0 0 1 -1.345-.508z" fill="#fff"/><path d="m51.082 63.424v.492a.7.7 0 0 1 -.2.507.725.725 0 0 1 -.578.259.763.763 0 0 1 -.755-.767v-.492a.767.767 0 1 1 1.533 0z" fill="#fff"/></g></svg>