<svg id="Capa_1" enable-background="new 0 0 512 512" height="512" viewBox="0 0 512 512" width="512" xmlns="http://www.w3.org/2000/svg"><g><g><g><circle cx="151.553" cy="256" fill="#e94444" r="72.645"/></g><g><circle cx="151.553" cy="431.857" fill="#60b7ff" r="72.645"/></g><g><path d="m224.203 256c0 40.121-32.526 72.647-72.647 72.647-19.219 0-36.684-7.465-49.68-19.65 9.589 4.669 20.361 7.285 31.744 7.285 40.121 0 72.647-32.526 72.647-72.647 0-20.902-8.828-39.74-22.966-52.997 24.218 11.784 40.902 36.624 40.902 65.362z" fill="#d83131"/></g><g><path d="m224.203 431.855c0 40.121-32.526 72.647-72.647 72.647-19.219 0-36.684-7.465-49.68-19.65 9.589 4.669 20.361 7.285 31.744 7.285 40.121 0 72.647-32.516 72.647-72.637 0-20.902-8.828-39.74-22.966-53.007 24.218 11.784 40.902 36.624 40.902 65.362z" fill="#26a6fe"/></g><g><g><circle cx="151.553" cy="80.143" fill="#f4d902" r="72.645"/></g><g><path d="m224.203 80.145c0 40.121-32.526 72.647-72.647 72.647-19.219 0-36.684-7.465-49.68-19.65 9.589 4.669 20.361 7.285 31.744 7.285 40.121 0 72.647-32.526 72.647-72.647 0-20.902-8.828-39.74-22.966-52.997 24.218 11.784 40.902 36.624 40.902 65.362z" fill="#e3ca00"/></g></g></g><g><g><path d="m347.91 121.213h-65.95c-4.471 0-8.095-3.624-8.095-8.095v-65.949c0-4.471 3.624-8.095 8.095-8.095h65.949c4.471 0 8.095 3.624 8.095 8.095v65.949c0 4.471-3.624 8.095-8.094 8.095z" fill="#eaf6ff"/></g><g><path d="m347.91 297.069h-65.95c-4.471 0-8.095-3.624-8.095-8.095v-65.949c0-4.471 3.624-8.095 8.095-8.095h65.949c4.471 0 8.095 3.624 8.095 8.095v65.949c0 4.471-3.624 8.095-8.094 8.095z" fill="#eaf6ff"/></g><g><path d="m347.91 472.926h-65.95c-4.471 0-8.095-3.624-8.095-8.095v-65.949c0-4.471 3.624-8.095 8.095-8.095h65.949c4.471 0 8.095 3.624 8.095 8.095v65.949c0 4.471-3.624 8.095-8.094 8.095z" fill="#eaf6ff"/></g><g><path d="m356.008 47.169v65.953c0 4.469-3.627 8.086-8.096 8.086h-20.04c4.469 0 8.096-3.617 8.096-8.086v-65.953c0-4.469-3.627-8.096-8.096-8.096h20.04c4.469-.001 8.096 3.627 8.096 8.096z" fill="#d8ecfe"/></g><g><path d="m356.008 223.023v65.953c0 4.469-3.627 8.096-8.096 8.096h-20.04c4.469 0 8.096-3.627 8.096-8.096v-65.953c0-4.469-3.627-8.096-8.096-8.096h20.04c4.469 0 8.096 3.627 8.096 8.096z" fill="#d8ecfe"/></g><g><path d="m356.008 398.878v65.953c0 4.469-3.627 8.096-8.096 8.096h-20.04c4.469 0 8.096-3.627 8.096-8.096v-65.953c0-4.469-3.627-8.086-8.096-8.086h20.04c4.469 0 8.096 3.617 8.096 8.086z" fill="#d8ecfe"/></g><g><g><path d="m403.378 52.012-45.2 45.2c-.392.392-1.027.392-1.419 0l-12.112-12.112c-6.797-6.797-17.817-6.797-24.615 0-6.797 6.797-6.797 17.817 0 24.615l30.707 30.707c3.715 3.715 9.739 3.716 13.455 0l63.798-63.795c6.797-6.797 6.797-17.817 0-24.615-6.796-6.797-17.816-6.797-24.614 0z" fill="#97d729"/></g><g><path d="m427.995 76.632-63.804 63.792c-3.712 3.712-9.737 3.712-13.449 0l-8.562-8.562c3.192.656 6.632-.26 9.106-2.734l67.182-67.404c3.514-3.526 5.308-8.141 5.37-12.781 1.497.792 2.895 1.819 4.157 3.068 6.792 6.793 6.792 17.817 0 24.621z" fill="#8bc727"/></g><g><path d="m151.553 0c-44.191 0-80.143 35.952-80.143 80.144 0 44.191 35.952 80.143 80.143 80.143s80.143-35.952 80.143-80.143c0-44.192-35.952-80.144-80.143-80.144zm0 145.29c-35.921 0-65.146-29.225-65.146-65.146 0-35.922 29.225-65.147 65.146-65.147 35.922 0 65.146 29.225 65.146 65.147 0 35.921-29.224 65.146-65.146 65.146z"/><path d="m131.589 76.609v-11.499c0-4.141-3.357-7.499-7.498-7.499s-7.498 3.357-7.498 7.499v11.499c0 4.141 3.357 7.498 7.498 7.498s7.498-3.357 7.498-7.498z"/><path d="m179.015 57.612c-4.141 0-7.498 3.357-7.498 7.499v11.499c0 4.141 3.357 7.498 7.498 7.498s7.498-3.357 7.498-7.498v-11.5c.001-4.141-3.357-7.498-7.498-7.498z"/><path d="m171.543 98.934c-3.169-2.666-7.899-2.256-10.565.913-2.344 2.788-5.775 4.387-9.412 4.387-3.647 0-7.084-1.607-9.429-4.408-2.659-3.175-7.387-3.594-10.563-.936-3.176 2.659-3.594 7.388-.936 10.563 5.203 6.214 12.83 9.778 20.928 9.778 8.075 0 15.689-3.547 20.89-9.732 2.666-3.169 2.257-7.9-.913-10.565z"/><path d="m151.553 175.856c-44.191 0-80.143 35.952-80.143 80.144s35.952 80.143 80.143 80.143 80.143-35.952 80.143-80.143-35.952-80.144-80.143-80.144zm0 145.29c-35.921 0-65.146-29.225-65.146-65.146 0-35.922 29.225-65.146 65.146-65.146 35.922 0 65.146 29.225 65.146 65.146 0 35.922-29.224 65.146-65.146 65.146z"/><path d="m131.589 240.967c0-4.141-3.357-7.498-7.498-7.498s-7.498 3.357-7.498 7.498v11.499c0 4.141 3.357 7.499 7.498 7.499s7.498-3.357 7.498-7.499z"/><path d="m179.015 233.469c-4.141 0-7.498 3.357-7.498 7.498v11.499c0 4.141 3.357 7.499 7.498 7.499s7.498-3.357 7.498-7.499v-11.499c.001-4.141-3.357-7.498-7.498-7.498z"/><path d="m166.149 273.578h-29.191c-4.141 0-7.498 3.357-7.498 7.498s3.357 7.498 7.498 7.498h29.191c4.141 0 7.498-3.357 7.498-7.498s-3.357-7.498-7.498-7.498z"/><path d="m151.553 351.713c-44.191 0-80.143 35.952-80.143 80.143 0 2.237.094 4.5.278 6.723.343 4.128 3.969 7.197 8.093 6.853 4.127-.342 7.195-3.966 6.853-8.093-.15-1.813-.227-3.658-.227-5.483 0-35.922 29.225-65.146 65.146-65.146 35.922 0 65.146 29.225 65.146 65.146s-29.225 65.147-65.146 65.147c-22.29 0-42.798-11.214-54.861-29.997-2.238-3.485-6.877-4.495-10.361-2.257-3.485 2.238-4.495 6.877-2.257 10.361 14.834 23.099 40.06 36.89 67.479 36.89 44.191 0 80.143-35.952 80.143-80.143 0-44.192-35.952-80.144-80.143-80.144z"/><path d="m124.091 409.325c-4.141 0-7.498 3.357-7.498 7.498v11.499c0 4.141 3.357 7.498 7.498 7.498s7.498-3.357 7.498-7.498v-11.499c0-4.141-3.357-7.498-7.498-7.498z"/><path d="m179.015 435.821c4.141 0 7.498-3.357 7.498-7.498v-11.499c0-4.141-3.357-7.498-7.498-7.498s-7.498 3.357-7.498 7.498v11.499c0 4.141 3.357 7.498 7.498 7.498z"/><path d="m151.539 445.308c-8.075 0-15.689 3.547-20.89 9.732-2.665 3.169-2.256 7.9.913 10.565 3.169 2.666 7.899 2.256 10.565-.913 2.344-2.788 5.775-4.387 9.412-4.387 3.647 0 7.084 1.607 9.429 4.408 1.483 1.772 3.611 2.686 5.754 2.685 1.698 0 3.406-.574 4.809-1.749 3.176-2.658 3.595-7.387.937-10.563-5.202-6.214-12.83-9.778-20.929-9.778z"/><path d="m347.91 207.432h-65.95c-8.598 0-15.593 6.995-15.593 15.593v65.95c0 8.598 6.995 15.593 15.593 15.593h65.95c8.598 0 15.594-6.995 15.594-15.593v-65.95c-.001-8.598-6.996-15.593-15.594-15.593zm.596 81.543c0 .329-.268.596-.597.596h-65.95c-.328 0-.596-.268-.596-.596v-65.95c0-.328.268-.596.596-.596h65.95c.329 0 .597.267.597.596z"/><path d="m347.91 383.289h-65.95c-8.598 0-15.593 6.995-15.593 15.593v65.95c0 8.598 6.995 15.593 15.593 15.593h65.95c8.598 0 15.594-6.995 15.594-15.593v-65.95c-.001-8.598-6.996-15.593-15.594-15.593zm.596 81.542c0 .329-.268.596-.597.596h-65.95c-.328 0-.596-.268-.596-.596v-65.95c0-.329.268-.596.596-.596h65.95c.329 0 .597.268.597.596z"/><path d="m433.296 46.71c-4.704-4.704-10.958-7.294-17.61-7.294-6.653 0-12.907 2.591-17.61 7.294l-8.471 8.471c-2.928 2.928-2.928 7.676 0 10.604 2.929 2.928 7.676 2.928 10.605 0l8.471-8.471c1.871-1.871 4.359-2.901 7.005-2.901s5.134 1.031 7.005 2.902 2.902 4.359 2.902 7.005-1.031 5.134-2.902 7.005l-63.798 63.794c-.788.787-2.067.786-2.851 0l-30.708-30.707c-3.862-3.862-3.862-10.148-.001-14.01 3.864-3.863 10.149-3.863 14.011 0l12.112 12.112c3.316 3.315 8.709 3.316 12.023 0l12.18-12.18c2.929-2.928 2.929-7.676.001-10.604-2.928-2.929-7.676-2.929-10.604 0l-1.553 1.553v-34.114c0-8.598-6.996-15.593-15.594-15.593h-65.95c-8.598 0-15.593 6.995-15.593 15.593v65.949c0 8.598 6.995 15.593 15.593 15.593h46.465l17.013 17.012c3.317 3.317 7.673 4.976 12.03 4.976 4.356 0 8.713-1.658 12.03-4.975l63.799-63.795c4.703-4.704 7.294-10.958 7.294-17.61s-2.591-12.906-7.294-17.609zm-119.769 67.004h-31.567c-.328 0-.596-.268-.596-.596v-65.949c0-.329.268-.596.596-.596h65.95c.329 0 .597.267.597.596v31.305c-9.773-8.355-24.532-7.919-33.776 1.325-9.288 9.288-9.685 24.143-1.204 33.915z"/></g></g></g></g></svg>