<svg id="Capa_1" enable-background="new 0 0 512 512" height="512" viewBox="0 0 512 512" width="512" xmlns="http://www.w3.org/2000/svg"><g><g><path clip-rule="evenodd" d="m200.965 348.017 6.321-6.321c6.746 3.997 14.088 7.087 21.884 9.071v8.929c0 4.28 3.487 7.767 7.767 7.767h25.88c4.28 0 7.767-3.487 7.767-7.767v-8.929c7.795-1.984 15.137-5.074 21.884-9.071l6.321 6.321c3.005 3.005 7.937 3.005 10.97 0l18.312-18.312c3.005-3.005 3.005-7.937 0-10.97l-6.321-6.321c3.997-6.747 7.087-14.089 9.071-21.884h8.929c4.252 0 7.767-3.487 7.767-7.739v-25.909c0-4.28-3.487-7.767-7.767-7.767h-8.929c-1.984-7.767-5.074-15.137-9.071-21.884l6.321-6.321c3.005-3.005 3.005-7.937 0-10.942l-18.312-18.341c-3.033-3.005-7.965-3.005-10.97 0l-6.321 6.35c-6.746-4.025-14.088-7.115-21.884-9.099v-8.929c0-4.252-3.487-7.739-7.767-7.739h-25.88c-4.28 0-7.767 3.487-7.767 7.739v8.929c-7.795 2.013-15.137 5.074-21.884 9.099l-6.321-6.35c-3.005-3.005-7.937-3.005-10.97 0l-18.312 18.341c-3.005 3.005-3.005 7.937 0 10.942l6.321 6.321c-3.997 6.747-7.087 14.117-9.071 21.884h-8.929c-4.252 0-7.739 3.487-7.739 7.767v25.909c0 4.252 3.487 7.739 7.739 7.739h8.929c1.984 7.796 5.074 15.137 9.071 21.884l-6.321 6.321c-3.005 3.033-3.005 7.966 0 10.97l18.312 18.312c3.033 3.005 7.965 3.005 10.97 0z" fill="#beb9dd" fill-rule="evenodd"/></g><g><path clip-rule="evenodd" d="m426.292 171.555h63.723 9.865c2.523 0 4.62-2.098 4.62-4.621v-59.756c0-2.523-2.126-4.224-4.62-4.621l-9.865-1.531-2.721-.425-23.896-3.713-25.228-3.94v-30.02c0-3.317-2.863-5.216-6.066-6.066l-66.501-18.029c-4.309-1.191-9.213-.198-9.213 6.208v53.208 67.211c0 3.345 2.75 6.095 6.094 6.095h25.002v-37.787c0-3.373.992-6.492 2.75-9.099 2.948-4.451 7.994-7.37 13.72-7.37 9.043 0 16.469 7.399 16.469 16.47v27.894 9.893h5.867z" fill="#a7e9a6" fill-rule="evenodd"/></g><g><path clip-rule="evenodd" d="m138.433 164.298v-62.874-42.379c0-4.451-3.628-8.079-8.079-8.079-60.208 0-45.043 0-105.251 0-4.45 0-8.107 3.628-8.107 8.079v105.254c0 4.451 3.657 8.079 8.107 8.079h47.877 57.373c4.451-.001 8.08-3.629 8.08-8.08z" fill="#ffd772" fill-rule="evenodd"/></g><g><path clip-rule="evenodd" d="m113.998 50.966c4.961 12.671 7.739 28.121 7.739 41.557 0 13.408-1.814 23.557-5.187 34.272-5.698 18.171-25.002 33.96-38.041 45.582h51.846c4.45 0 8.079-3.628 8.079-8.079v-62.874-42.379c0-4.451-3.628-8.079-8.079-8.079z" fill="#fbba58" fill-rule="evenodd"/></g><g><path clip-rule="evenodd" d="m487.294 100.602-12.132-1.899c.028 1.361.057 2.721.057 4.082 0 9.78-.68 19.305-1.928 28.489-1.984 14.372-5.414 27.922-10.063 40.282h26.787 9.865c2.523 0 4.62-2.098 4.62-4.621v-59.756c0-2.523-2.126-4.224-4.62-4.621l-9.865-1.531z" fill="#7fdbae" fill-rule="evenodd"/></g><g><path clip-rule="evenodd" d="m410.106 403.011c-3.175 0-6.236.312-9.213.85-16.98 3.203-30.189 14.996-32.627 29.538-.255 1.616-.397 3.26-.397 4.904v30.587c0 2.58 2.523 4.706 5.613 4.706h110.977c2.75 0 5.046-1.644 5.556-3.827.057-.283.085-.567.085-.879v-30.587c0-.794-.028-1.587-.085-2.381-1.502-18.312-19.899-32.911-42.151-32.911-12.671 0-25.115 0-37.758 0z" fill="#75cef8" fill-rule="evenodd"/></g><g><path clip-rule="evenodd" d="m392.418 351.192c10.29.142 26.277 1.956 42.293.028 10.602-1.304 21.203-4.224 30.246-10.318-2.013-10.942-8.929-20.212-18.34-25.428-5.414-3.005-11.679-4.677-18.284-4.564-19.814.368-35.915 16.668-35.915 36.568z" fill="#375e7d" fill-rule="evenodd"/></g><g><path clip-rule="evenodd" d="m434.711 351.221c-16.016 1.928-32.003.113-42.293-.028v17.377c0 11.622 5.499 22.054 14.032 28.744 3.09 2.438 6.548 4.366 10.318 5.698 3.827 1.361 7.937 2.126 12.217 2.126s8.391-.765 12.217-2.126c14.145-5.046 24.35-18.624 24.35-34.442v-21.09c0-2.239-.198-4.451-.595-6.577-9.043 6.094-19.645 9.014-30.246 10.318z" fill="#f2ccbc" fill-rule="evenodd"/></g><g><path clip-rule="evenodd" d="m435.675 404.514c16.498 4.167 28.8 16.555 30.019 31.409.057.794.085 1.587.085 2.381v30.587c0 .312-.028.595-.085.879-.482 2.183-2.778 3.827-5.528 3.827h24.293c2.75 0 5.046-1.644 5.556-3.827.057-.283.085-.567.085-.879v-30.587c0-.794-.028-1.587-.085-2.381-1.502-18.312-19.899-32.911-42.151-32.911h-6.661c-1.787.651-3.629 1.133-5.528 1.502z" fill="#60b7ff" fill-rule="evenodd"/></g><g><path clip-rule="evenodd" d="m415.662 402.614c.369.142.737.283 1.106.397-.369-.113-.738-.255-1.106-.397zm-5.471.397h-.085zm36.567-54.058v17.49c0 15.846-10.205 29.396-24.35 34.47-2.154.765-4.422 1.332-6.747 1.701-1.786.255-3.628.397-5.471.397h6.576c3.827 1.361 7.937 2.126 12.217 2.126 2.296 0 4.535-.227 6.69-.624 1.899-.368 3.742-.85 5.528-1.502 14.145-5.046 24.35-18.624 24.35-34.442v-21.09c0-2.239-.198-4.451-.595-6.577-5.584 3.77-11.792 6.35-18.198 8.051z" fill="#ecad9a" fill-rule="evenodd"/></g><g><path clip-rule="evenodd" d="m446.758 345.381v3.572c6.406-1.701 12.614-4.28 18.199-8.051-2.013-10.942-8.929-20.212-18.34-25.428-5.414-3.005-11.679-4.677-18.284-4.564-1.644.028-3.26.17-4.847.425 1.502.567 2.948 1.247 4.337 2.041 6.491 3.6 11.792 9.099 15.109 15.761 1.502 3.005 2.608 6.236 3.231 9.638.397 2.156.595 4.338.595 6.606z" fill="#2b4d66" fill-rule="evenodd"/></g><g><path clip-rule="evenodd" d="m137.582 437.68v-72.059c0-2.863-3.09-3.799-5.924-5.188l-59.103-28.716-12.813 6.208-42.747 20.779-3.572 1.729c-2.835 1.389-5.924 2.324-5.924 5.188v102.816c0 2.835 2.665 5.159 5.924 5.159h3.572 114.662c3.26 0 5.924-2.324 5.924-5.159v-30.757z" fill="#beb9dd" fill-rule="evenodd"/></g><g><path clip-rule="evenodd" d="m104.417 421.295c0-2.041-1.672-3.713-3.742-3.713h-56.268c-2.069 0-3.742 1.672-3.742 3.713v24.294h63.751v-24.294z" fill="#f9f7f8" fill-rule="evenodd"/></g><g><path clip-rule="evenodd" d="m40.665 445.589h63.751v28.007h-63.751z" fill="#f9f7f8" fill-rule="evenodd"/></g><g><path clip-rule="evenodd" d="m119.724 354.651v69.564 13.465 30.757c0 2.835-2.665 5.159-5.953 5.159h17.887c3.26 0 5.924-2.324 5.924-5.159v-30.757-72.059c0-2.863-3.09-3.799-5.924-5.188z" fill="#a7a2d3" fill-rule="evenodd"/></g><g><path clip-rule="evenodd" d="m88.798 421.295v24.294h15.619v-24.294c0-2.041-1.672-3.713-3.742-3.713h-15.619c2.041 0 3.742 1.672 3.742 3.713z" fill="#dddaec" fill-rule="evenodd"/></g><g><path clip-rule="evenodd" d="m88.798 445.589h15.619v28.007h-15.619z" fill="#dddaec" fill-rule="evenodd"/></g><g><path clip-rule="evenodd" d="m97.642 104.996v-54.03h-39.827v54.03l19.899-22.054z" fill="#f9f7f8" fill-rule="evenodd"/></g><g><path clip-rule="evenodd" d="m420.424 161.662v-27.894c0-9.071-7.427-16.47-16.469-16.47-5.726 0-10.772 2.92-13.72 7.37-1.757 2.608-2.75 5.726-2.75 9.099v37.787h32.939z" fill="#a7a2d3" fill-rule="evenodd"/></g><g><path clip-rule="evenodd" d="m262.817 172.207h-9.751c3.09 22.281 4.762 45.866 4.762 70.245 0 45.554-5.783 88.245-15.874 125.012h20.863c4.28 0 7.767-3.487 7.767-7.767v-8.929c7.795-1.984 15.137-5.074 21.884-9.071l6.321 6.321c3.005 3.005 7.937 3.005 10.97 0l18.312-18.312c3.005-3.005 3.005-7.937 0-10.97l-6.321-6.321c3.997-6.747 7.087-14.089 9.071-21.884h8.929c4.252 0 7.767-3.487 7.767-7.739v-25.909c0-4.28-3.487-7.767-7.767-7.767h-8.929c-1.984-7.767-5.074-15.137-9.071-21.884l6.321-6.321c3.005-3.005 3.005-7.937 0-10.942l-18.312-18.341c-3.033-3.005-7.965-3.005-10.97 0l-6.321 6.35c-6.746-4.025-14.088-7.115-21.884-9.099v-8.929c0-4.256-3.486-7.743-7.767-7.743z" fill="#a7a2d3" fill-rule="evenodd"/></g><g><path d="m80.861 378.248h-16.639c-4.142 0-7.5 3.358-7.5 7.5s3.358 7.5 7.5 7.5h16.639c4.142 0 7.5-3.358 7.5-7.5s-3.358-7.5-7.5-7.5z"/><path d="m453.901 123.774c-4.142 0-7.5 3.358-7.5 7.5s3.358 7.5 7.5 7.5h21.175c4.142 0 7.5-3.358 7.5-7.5s-3.358-7.5-7.5-7.5z"/><path d="m501.033 95.148-6.24-.972v-28.243c0-4.142-3.358-7.5-7.5-7.5s-7.5 3.358-7.5 7.5v25.907l-8.896-1.385v-35.776c0-4.142-3.358-7.5-7.5-7.5s-7.5 3.358-7.5 7.5v33.439l-10.229-1.593v-23.597c0-6.306-4.46-11.408-11.604-13.305l-66.48-18.023c-5.079-1.398-10.009-.667-13.525 2.009-1.931 1.469-5.17 4.909-5.17 11.433v40.238c-30.324-16.297-64.28-24.862-98.998-24.862-36.733 0-72.395 9.503-103.958 27.582v-28.955c0-8.59-6.989-15.579-15.579-15.579h-32.712-39.827-32.712c-8.605 0-15.607 6.989-15.607 15.579v8.674 26.646c0 4.142 3.358 7.5 7.5 7.5s7.5-3.358 7.5-7.5v-26.646-8.674c0-.303.289-.579.607-.579h25.212v46.53c0 3.104 1.912 5.887 4.809 7 2.896 1.114 6.18.328 8.26-1.976l14.335-15.887 14.359 15.891c1.451 1.605 3.486 2.472 5.566 2.472.904 0 1.816-.164 2.692-.501 2.896-1.114 4.806-3.897 4.806-7v-46.53h25.212c.308 0 .579.271.579.579v42.309.026 62.918c0 .309-.271.579-.579.579h-105.251c-.318 0-.607-.276-.607-.579v-8.674-26.646-1.672c0-4.142-3.358-7.5-7.5-7.5s-7.5 3.358-7.5 7.5v1.672 26.646 8.674c0 8.59 7.001 15.579 15.607 15.579h35.644c-13.285 27.951-20.268 58.797-20.268 89.958 0 21.984 3.385 43.559 10.047 64.242l-40.379 19.609c-.008.004-.016.008-.023.011-.358.176-.722.343-1.082.508-2.934 1.355-9.042 4.168-9.042 11.417v102.815c0 6.98 6.022 12.659 13.424 12.659h118.233c7.402 0 13.425-5.679 13.425-12.659v-17.276c31.767 18.413 67.721 28.093 104.809 28.093 39.47 0 77.365-10.856 110.479-31.51v21.146c0 6.73 5.882 12.206 13.113 12.206h36.936c4.142 0 7.5-3.358 7.5-7.5s-3.358-7.5-7.5-7.5h-35.049v-27.792c0-15.325 15.583-27.792 34.736-27.792h5.372c4.259 1.375 8.796 2.126 13.507 2.126s9.248-.751 13.507-2.126h5.372c19.154 0 34.736 12.468 34.736 27.792v27.792h-39.244c-4.142 0-7.5 3.358-7.5 7.5s3.358 7.5 7.5 7.5h41.103c7.246 0 13.141-5.476 13.141-12.206v-30.586c0-19.275-14.891-35.609-35.293-40.946 6.686-7.729 10.745-17.79 10.745-28.788v-21.091c0-11.867-4.686-23.011-13.195-31.379-1.522-1.497-3.134-2.864-4.819-4.109 2.827-13.865 4.266-28.019 4.266-42.154 0-31.474-7.127-62.602-20.684-90.78h61.259c6.683 0 12.121-5.438 12.121-12.121v-59.756c0-6.058-4.5-11.004-10.967-12.031zm-410.891-9.64-6.863-7.595c-1.422-1.574-3.444-2.472-5.565-2.472-.001 0-.002 0-.002 0-2.123.001-4.145.9-5.566 2.476l-6.831 7.571v-27.022h24.827zm6.775 352.581h-48.751v-13.007h48.751zm-48.751 15h48.751v13.007h-48.751zm81.917 13.007h-18.166v-44.801c0-6.183-5.043-11.213-11.242-11.213h-56.268c-6.199 0-11.242 5.03-11.242 11.213v44.801h-18.165v-98.118c.112-.052.22-.102.319-.147.462-.213.93-.429 1.392-.655l55.843-27.12 55.804 27.113c.466.229.938.447 1.405.662.099.045.207.095.319.147v98.118zm327.969-97.527c0 16.028-13.04 29.068-29.067 29.068s-29.067-13.04-29.067-29.068v-9.593c.548.027 1.092.054 1.652.082 5.023.252 10.742.54 16.831.54 12.603 0 26.782-1.248 39.651-6.566zm-1.82-31.195c-16.481 8.577-37.899 7.507-53.91 6.703-.738-.037-1.462-.073-2.181-.108 1.735-14.119 13.773-25.289 28.317-25.559.166-.003.331-.004.496-.004 7.65 0 14.873 2.968 20.385 8.389 3.099 3.047 5.425 6.65 6.893 10.579zm-11.928-67.538c0 11.809-1.094 23.631-3.221 35.261-4.138-1.185-8.47-1.763-12.889-1.684-23.862.444-43.275 20.212-43.275 44.066v21.091c0 10.998 4.059 21.059 10.745 28.788-17.003 4.448-30.17 16.537-34.088 31.597-32.807 23.099-71.358 35.299-111.684 35.299-37.391 0-73.539-10.588-104.809-30.654v-67.978c0-7.25-6.108-10.063-9.044-11.415-.359-.166-.723-.332-1.104-.519l-59.102-28.716c-2.07-1.005-4.485-1.005-6.554 0l-5.125 2.489c-5.759-18.579-8.674-37.924-8.674-57.625 0-31.354 7.619-62.352 22.037-89.958h52.838c8.59 0 15.579-6.989 15.579-15.579v-58.795c31.077-19.694 66.93-30.086 103.958-30.086 34.971 0 69.105 9.355 98.998 27.084v62.959c0 7.496 6.099 13.595 13.595 13.595h59.325c14.716 27.826 22.494 59.11 22.494 90.78zm-49.319-105.781v-30.287c0-4.946 4.023-8.97 8.969-8.97s8.97 4.024 8.97 8.97v30.287zm102.015 0h-69.076v-30.287c0-13.217-10.753-23.97-23.97-23.97s-23.969 10.753-23.969 23.97v30.287h-16.096v-117.916l66.289 17.971c.186.049.349.101.491.151v28.687c0 3.697 2.693 6.842 6.346 7.411l24.828 3.866c.264.056.533.099.807.126l34.35 5.349z"/><path d="m339.75 241.613h-3.302c-1.46-4.48-3.271-8.846-5.416-13.061l2.342-2.342c5.94-5.94 5.941-15.607.004-21.544l-18.341-18.37c-5.963-5.907-15.631-5.896-21.564.037l-2.331 2.341c-4.211-2.154-8.576-3.969-13.059-5.43v-3.299c0-8.403-6.849-15.239-15.267-15.239h-25.88c-8.418 0-15.267 6.836-15.267 15.239v3.311c-4.506 1.473-8.871 3.285-13.056 5.421l-2.345-2.356c-5.921-5.921-15.589-5.932-21.581.004l-18.308 18.337c-2.87 2.87-4.45 6.696-4.45 10.774s1.581 7.905 4.45 10.774l2.342 2.342c-2.145 4.214-3.955 8.58-5.416 13.061h-3.302c-8.403 0-15.239 6.849-15.239 15.268v25.909c0 8.403 6.836 15.239 15.239 15.239h3.299c1.458 4.475 3.269 8.84 5.417 13.061l-2.366 2.366c-5.907 5.963-5.896 15.631.025 21.552l18.337 18.337c5.962 5.907 15.63 5.896 21.552-.025l2.341-2.341c4.22 2.149 8.586 3.96 13.061 5.418v3.299c0 8.418 6.849 15.267 15.267 15.267h25.88c8.418 0 15.267-6.849 15.267-15.267v-3.299c4.475-1.458 8.84-3.269 13.061-5.418l2.341 2.341c5.921 5.921 15.59 5.932 21.577 0l18.312-18.312c5.92-5.921 5.931-15.588 0-21.577l-2.341-2.341c2.149-4.221 3.96-8.586 5.417-13.061h3.299c8.418 0 15.267-6.836 15.267-15.239v-25.909c.001-8.419-6.848-15.268-15.266-15.268zm.267 41.177c0 .094-.143.239-.267.239h-8.929c-3.43 0-6.422 2.326-7.268 5.65-1.77 6.954-4.548 13.653-8.255 19.912-1.746 2.948-1.273 6.704 1.149 9.126l6.296 6.296c.114.115.097.318.025.39l-18.287 18.287c-.115.114-.317.097-.389.025l-6.321-6.321c-2.422-2.423-6.18-2.896-9.126-1.149-6.259 3.708-12.958 6.486-19.911 8.256-3.324.846-5.65 3.838-5.65 7.268v8.929c0 .137-.13.267-.267.267h-25.88c-.137 0-.267-.13-.267-.267v-8.929c0-3.43-2.326-6.422-5.65-7.268-6.954-1.77-13.652-4.548-19.91-8.256-1.189-.704-2.509-1.047-3.821-1.047-1.94 0-3.86.751-5.306 2.197l-6.321 6.321c-.071.071-.274.088-.364 0l-18.312-18.312c-.071-.072-.089-.274 0-.364l6.321-6.321c2.422-2.422 2.896-6.178 1.149-9.126-3.708-6.259-6.485-12.958-8.255-19.912-.846-3.324-3.838-5.65-7.268-5.65h-8.929c-.109 0-.239-.129-.239-.239v-25.909c0-.153.145-.268.239-.268h8.929c3.427 0 6.418-2.323 7.267-5.644 1.782-6.976 4.561-13.678 8.257-19.917 1.746-2.948 1.273-6.704-1.149-9.126l-6.322-6.322c-.014-.014-.056-.057-.056-.167 0-.111.042-.154.061-.172l18.283-18.312c.114-.114.317-.096.376-.037l6.321 6.35c2.427 2.439 6.204 2.913 9.159 1.149 6.148-3.668 12.848-6.454 19.915-8.278 3.312-.855 5.625-3.842 5.625-7.262v-8.929c0-.094.115-.239.267-.239h25.88c.152 0 .267.145.267.239v8.929c0 3.43 2.326 6.422 5.65 7.268 6.975 1.776 13.667 4.559 19.891 8.272 2.956 1.763 6.73 1.29 9.158-1.15l6.309-6.338c.071-.071.274-.089.359-.004l18.316 18.344c.075.076.076.261 0 .336l-6.321 6.322c-2.422 2.422-2.895 6.178-1.149 9.126 3.696 6.24 6.475 12.941 8.257 19.917.848 3.32 3.839 5.644 7.267 5.644h8.929c.137 0 .267.13.267.268z"/><path d="m262.044 262.259c-1.587-.565-3.205-1.151-4.823-1.759v-27.549c3.086.989 5.085 2.458 5.715 2.967 3.222 2.602 7.944 2.101 10.547-1.122 2.603-3.222 2.101-7.944-1.122-10.547-2.007-1.622-7.337-5.358-15.14-6.75v-5.067c0-4.142-3.358-7.5-7.5-7.5s-7.5 3.358-7.5 7.5v5.653c-.661.164-1.326.34-2.003.545-9.477 2.853-16.557 10.948-18.476 21.129-1.755 9.309 1.251 18.305 7.855 23.484 3.518 2.75 7.875 5.149 12.625 7.312v35.868c-4.173-.469-7.161-1.729-11.98-4.88-3.468-2.266-8.115-1.294-10.382 2.173s-1.294 8.115 2.173 10.382c7.914 5.174 13.42 6.886 20.189 7.388v5.752c0 4.142 3.358 7.5 7.5 7.5s7.5-3.358 7.5-7.5v-6.451c13.64-3.212 22.392-14.742 24.304-26.115 2.46-14.637-5.193-27.362-19.482-32.413zm-23.2-10.826c-2.138-1.677-3.064-5.168-2.362-8.895.568-3.016 2.365-6.557 5.739-8.529v19.7c-1.246-.74-2.383-1.499-3.377-2.276zm27.889 40.752c-.833 4.953-4.064 10.178-9.512 12.788v-28.503c10.619 3.867 9.97 12.995 9.512 15.715z"/></g></g></svg>